<?xml version="1.0" encoding="iso-8859-1"?>
<!-- Generator: Adobe Illustrator 19.0.0, SVG Export Plug-In . SVG Version: 6.00 Build 0)  -->
<svg version="1.1" id="Layer_1" xmlns="http://www.w3.org/2000/svg" xmlns:xlink="http://www.w3.org/1999/xlink" x="0px" y="0px"
	 viewBox="0 0 512.001 512.001" style="enable-background:new 0 0 512.001 512.001;" xml:space="preserve">
<path style="fill:#4DD0E2;" d="M370.43,218.645c0,115.192-114.429,208.574-114.429,208.574s-114.429-93.382-114.429-208.574
	S256.001,10.071,256.001,10.071S370.43,103.453,370.43,218.645z"/>
<g>
	<circle style="fill:#FFB64D;" cx="318.417" cy="241.529" r="19.765"/>
	<circle style="fill:#FFB64D;" cx="212.309" cy="189.516" r="19.765"/>
	<circle style="fill:#FFB64D;" cx="254.96" cy="120.858" r="19.765"/>
	<circle style="fill:#FFB64D;" cx="202.947" cy="320.59" r="19.765"/>
	<circle style="fill:#FFB64D;" cx="316.336" cy="174.952" r="19.765"/>
</g>
<path d="M263.803,430.834c8.053-6.96,31.704-28.426,55.63-59.995c38.466-50.753,58.799-103.381,58.799-152.195
	S357.9,117.201,319.433,66.448c-28.838-38.049-57.302-61.444-58.498-62.422L256.001,0l-4.933,4.026
	c-1.197,0.977-29.661,24.373-58.499,62.423c-38.466,50.753-58.799,103.381-58.799,152.195c0,30.564,7.768,62.305,23.088,94.338
	l14.077-6.732c-2.086-4.361-4.003-8.711-5.788-13.051l13.815,13.815c-5.945,10.512-4.452,24.124,4.493,33.069
	c5.207,5.208,12.13,8.076,19.494,8.076c4.84,0,9.486-1.246,13.583-3.574l31.669,31.669v33.444
	c-11.743-11.179-29.946-29.978-47.454-54.022l-12.614,9.186c25.347,34.811,51.503,58.573,60.068,65.977v65.56h-39.01v15.604h124.832
	v-15.604h-70.218L263.803,430.834L263.803,430.834z M307.223,361.117c-16.215,21.437-32.575,38.261-43.42,48.584v-33.449
	l82.929-82.928C335.776,319.888,320.802,343.165,307.223,361.117z M220.769,197.976c-2.259,2.259-5.263,3.504-8.458,3.504
	c-3.196,0-6.2-1.244-8.459-3.505c-4.664-4.664-4.664-12.252,0.001-16.918c2.259-2.259,5.263-3.504,8.458-3.504
	c3.196,0,6.199,1.244,8.458,3.504l0.001,0.001C225.433,185.722,225.433,193.311,220.769,197.976z M192.817,209.008
	c5.207,5.208,12.13,8.076,19.494,8.076c4.233,0,8.318-0.952,12.017-2.747l23.872,23.872v46.955l-96.193-96.193
	c2.216-12.76,5.712-25.109,10.076-36.877l25.418,25.418C182.543,187.778,184.31,200.503,192.817,209.008z M254.96,108.896
	c3.196,0,6.199,1.244,8.458,3.504l0.001,0.001c4.664,4.664,4.664,12.252-0.001,16.918c-2.259,2.259-5.263,3.504-8.458,3.504
	s-6.2-1.244-8.459-3.505c-4.664-4.664-4.664-12.252,0.001-16.918C248.761,110.14,251.766,108.896,254.96,108.896z M324.795,166.494
	L324.795,166.494c4.665,4.665,4.665,12.253,0,16.919c-2.259,2.259-5.264,3.504-8.458,3.504c-3.196,0-6.2-1.244-8.459-3.505
	c-4.664-4.664-4.664-12.252,0.001-16.918c2.259-2.259,5.263-3.504,8.458-3.504C319.532,162.99,322.536,164.234,324.795,166.494z
	 M302.953,199.058c4.049,2.255,8.622,3.461,13.384,3.461c7.364,0,14.286-2.868,19.493-8.075c8.889-8.889,10.418-22.386,4.605-32.869
	l9.485-9.485c4.364,11.769,7.86,24.118,10.076,36.877l-28.361,28.361c-4.007-2.196-8.522-3.367-13.218-3.367
	c-7.364,0-14.286,2.868-19.493,8.075c-8.841,8.841-10.403,22.242-4.699,32.702l-30.423,30.424v-46.955L302.953,199.058z
	 M362.628,218.645c0,14.36-1.9,28.381-5.143,41.858l-93.682,93.682V307.23l41.462-41.462c3.99,2.172,8.481,3.33,13.152,3.33
	c7.364,0,14.286-2.868,19.493-8.075c8.822-8.823,10.397-22.186,4.735-32.635l19.675-19.674
	C362.517,212.004,362.628,215.315,362.628,218.645z M326.876,249.99c-2.259,2.259-5.264,3.504-8.458,3.504
	c-3.196,0-6.2-1.244-8.459-3.505c-4.664-4.664-4.664-12.252,0.001-16.918c2.259-2.259,5.263-3.504,8.458-3.504
	s6.199,1.244,8.458,3.504v0.001C331.541,237.736,331.541,245.324,326.876,249.99z M318.685,92.236l-29.139,29.139l11.033,11.034
	l26.7-26.7c5.757,9.529,11.291,19.827,16.208,30.745l-14.165,14.166c-3.948-2.114-8.38-3.235-12.986-3.235
	c-7.364,0-14.286,2.868-19.493,8.075c-8.776,8.776-10.383,22.043-4.829,32.468l-28.212,28.213v-69.164
	c3.967-1.339,7.603-3.577,10.65-6.624c10.748-10.748,10.748-28.238,0-38.985c-2.042-2.042-4.351-3.719-6.844-5.01l31.066-31.066
	c2.834,3.479,5.692,7.105,8.548,10.879C310.975,81.132,314.834,86.508,318.685,92.236z M288.554,53.346l-24.751,24.751V27.588
	C270.426,33.891,279.106,42.623,288.554,53.346z M248.199,27.588v49.697l-24.56-24.155C233.013,42.504,241.62,33.849,248.199,27.588
	z M213.516,65.059l30.845,30.337c-3.285,1.368-6.302,3.379-8.893,5.97c-10.748,10.748-10.748,28.238,0,38.985
	c3.573,3.573,7.955,6.045,12.732,7.244v68.546l-12.324-12.325c6.433-10.603,5.08-24.64-4.072-33.791
	c-5.207-5.208-12.13-8.076-19.494-8.076c-5.126,0-10.038,1.394-14.307,3.995l-29.49-29.49c4.918-10.918,10.452-21.216,16.208-30.745
	l24.338,24.338l11.033-11.034l-26.778-26.778c3.851-5.73,7.71-11.105,11.462-16.066C207.698,72.312,210.621,68.609,213.516,65.059z
	 M202.947,332.554c-3.196,0-6.2-1.244-8.459-3.505c-4.664-4.664-4.664-12.252,0.001-16.918c2.259-2.259,5.263-3.504,8.458-3.504
	c3.196,0,6.199,1.244,8.458,3.504l0.001,0.001c4.664,4.664,4.664,12.252-0.001,16.918
	C209.147,331.309,206.143,332.554,202.947,332.554z M227.378,333.363c5.425-10.393,3.78-23.547-4.937-32.265
	c-5.207-5.208-12.13-8.076-19.494-8.076c-4.525,0-8.882,1.087-12.778,3.13l-35.692-35.692c-3.384-14.173-5.104-28.144-5.104-41.819
	c0-3.33,0.111-6.639,0.309-9.93l98.516,98.515v46.955L227.378,333.363z"/>
<rect x="177.98" y="496.395" width="15.604" height="15.604"/>
<g>
</g>
<g>
</g>
<g>
</g>
<g>
</g>
<g>
</g>
<g>
</g>
<g>
</g>
<g>
</g>
<g>
</g>
<g>
</g>
<g>
</g>
<g>
</g>
<g>
</g>
<g>
</g>
<g>
</g>
</svg>
